<?xml version="1.0" standalone="no"?>
<!DOCTYPE svg PUBLIC "-//W3C//DTD SVG 20010904//EN"
 "http://www.w3.org/TR/2001/REC-SVG-20010904/DTD/svg10.dtd">
<svg version="1.0" xmlns="http://www.w3.org/2000/svg"
 width="1000.000000pt" height="1000.000000pt" viewBox="0 0 1000.000000 1000.000000"
 preserveAspectRatio="xMidYMid meet">

<g transform="translate(0.000000,1000.000000) scale(0.100000,-0.100000)"
fill="#000000" stroke="none">
<path d="M0 5000 l0 -5000 5000 0 5000 0 0 5000 0 5000 -5000 0 -5000 0 0
-5000z m4021 833 c-5 -10 -72 -108 -149 -218 l-139 -200 -232 -3 -231 -2 0
-630 0 -630 -235 0 -235 0 0 630 0 630 -310 2 -311 3 84 120 c45 66 113 164
150 218 l68 97 775 0 c735 0 774 -1 765 -17z m1710 0 c-6 -10 -72 -108 -148
-218 l-138 -200 -438 -3 -437 -2 0 -90 0 -90 549 -2 549 -3 -150 -217 -150
-218 -399 0 -399 0 0 -320 0 -320 -235 0 -235 0 0 850 0 850 820 0 c779 0 820
-1 811 -17z m2039 15 c0 -2 -67 -100 -149 -218 l-148 -215 -565 -5 c-619 -5
-598 -3 -598 -66 0 -36 20 -61 53 -69 12 -3 234 -6 492 -8 523 -4 518 -3 665
-75 99 -48 203 -151 247 -242 73 -153 72 -344 -3 -493 -40 -78 -153 -185 -244
-229 -154 -75 -106 -72 -968 -75 l-772 -4 71 103 c39 57 107 156 152 221 l81
117 580 0 581 0 51 24 c88 41 111 108 55 163 -54 55 -64 56 -616 63 -566 7
-549 5 -690 78 -191 100 -292 298 -257 505 18 106 60 183 140 258 91 87 214
143 347 162 32 4 1495 9 1495 5z m-7499 -3587 c20 -16 22 -23 13 -38 -17 -27
-58 -39 -89 -25 -37 17 -43 41 -16 64 30 23 63 23 92 -1z m-3 -107 c12 -8 22
-20 22 -26 0 -21 -33 -48 -59 -48 -31 0 -71 25 -71 45 0 18 39 45 65 45 11 0
31 -7 43 -16z m22 -114 c0 -5 -22 -10 -49 -10 -30 0 -51 -5 -54 -12 -4 -10 -8
-9 -16 2 -19 26 -12 30 54 30 37 0 65 -4 65 -10z m0 -70 c0 -5 -22 -10 -49
-10 -30 0 -51 -5 -54 -12 -4 -10 -8 -9 -16 2 -19 26 -12 30 54 30 37 0 65 -4
65 -10z m-61 -66 c34 -15 61 -31 61 -35 0 -13 -6 -11 -50 11 -52 27 -60 25
-60 -11 0 -17 -4 -28 -10 -24 -10 6 -15 85 -6 85 3 0 32 -12 65 -26z m53 -98
c11 -25 6 -56 -10 -56 -4 0 -8 12 -7 27 0 32 -24 43 -32 14 -6 -24 -23 -28
-23 -6 0 8 -7 15 -15 15 -10 0 -15 -10 -15 -27 0 -20 -3 -24 -11 -16 -7 7 -9
23 -5 38 6 22 11 26 32 22 13 -2 27 0 30 4 11 18 45 8 56 -15z m-22 -86 c0 -5
8 -11 18 -11 16 -1 16 -2 0 -6 -12 -3 -18 -14 -18 -34 0 -36 -14 -37 -63 -4
-48 33 -47 45 3 45 22 0 40 5 40 10 0 6 5 10 10 10 6 0 10 -4 10 -10z m30
-120 c0 -5 -22 -10 -50 -10 -41 0 -50 -3 -50 -17 -1 -16 -2 -16 -15 1 -24 32
-18 36 50 36 37 0 65 -4 65 -10z m-8 -74 c11 -25 6 -56 -10 -56 -4 0 -8 12 -7
27 0 36 -22 40 -37 6 -7 -15 -13 -29 -14 -31 -1 -1 -13 2 -28 7 -19 8 -26 18
-26 36 0 14 5 25 10 25 6 0 10 -9 10 -19 0 -27 19 -36 27 -14 17 49 56 59 75
19z m-69 -107 c-3 -10 -1 -19 5 -19 16 0 24 18 11 22 -8 3 -7 7 2 15 11 8 19
5 34 -10 17 -17 17 -19 3 -14 -12 4 -18 1 -18 -8 0 -8 8 -15 18 -16 14 0 14
-2 -3 -8 -11 -5 -25 -4 -32 1 -7 5 -16 7 -20 5 -5 -3 -17 1 -28 9 -19 14 -19
14 1 15 17 0 17 1 2 12 -15 10 -15 12 0 23 20 15 32 1 25 -27z m75 -136 c-26
-2 -71 -2 -100 0 -29 2 -8 3 47 3 55 0 79 -1 53 -3z m-17 -111 c-26 -18 -27
-32 -1 -32 11 0 20 -4 20 -10 0 -6 -32 -10 -75 -10 -43 0 -75 4 -75 10 0 6 20
10 45 10 49 0 56 8 25 28 -11 7 -20 17 -20 23 0 7 11 4 26 -6 25 -16 27 -16
48 4 14 14 22 17 25 9 2 -6 -6 -18 -18 -26z m-59 -94 c2 -17 10 -23 28 -23 18
0 26 6 28 23 4 27 22 30 22 3 0 -38 -45 -63 -77 -43 -16 10 -28 62 -15 62 6 0
12 -10 14 -22z m62 -84 c9 -8 16 -22 16 -29 0 -20 -28 -45 -50 -45 -22 0 -50
25 -50 45 0 20 28 45 50 45 10 0 26 -7 34 -16z m-64 -94 c0 -5 14 -10 30 -10
17 0 30 5 30 12 0 9 3 9 11 1 18 -18 1 -33 -36 -33 -18 0 -35 -5 -37 -12 -3
-8 -12 -5 -28 10 -19 18 -21 22 -7 22 9 0 17 5 17 10 0 6 5 10 10 10 6 0 10
-4 10 -10z m72 -84 c11 -25 6 -56 -10 -56 -4 0 -8 12 -7 27 0 37 -21 40 -40 4
-25 -49 -75 -33 -75 23 0 24 18 19 22 -6 5 -33 25 -33 43 1 19 38 51 41 67 7z
m-34 -159 c4 -30 22 -27 22 4 0 10 5 19 10 19 13 0 13 -26 0 -51 -13 -23 -53
-25 -74 -3 -19 19 -20 36 -4 52 20 20 43 9 46 -21z m31 -98 c26 -46 10 -59
-69 -59 -40 0 -70 4 -70 10 0 6 11 10 25 10 18 0 25 5 25 19 0 27 28 53 53 49
12 -2 28 -15 36 -29z m-5 -95 c19 -18 20 -28 6 -55 -19 -35 -90 -15 -90 26 0
20 28 45 50 45 10 0 26 -7 34 -16z m13 -120 c3 -8 1 -26 -5 -40 -17 -35 -58
-33 -80 6 -11 19 -25 30 -39 30 -13 0 -23 5 -23 10 0 6 30 10 70 10 55 0 72
-4 77 -16z m-2 -93 c-3 -6 -13 -11 -21 -11 -23 0 -18 -57 6 -63 11 -3 20 -10
20 -15 0 -6 -29 -1 -67 12 -38 13 -68 29 -68 36 0 7 29 23 65 35 67 23 77 24
65 6z"/>
<path d="M193 2253 c-20 -8 -15 -31 8 -38 28 -9 69 2 69 19 0 22 -44 33 -77
19z"/>
<path d="M193 2143 c-20 -8 -15 -31 8 -38 28 -9 69 2 69 19 0 22 -44 33 -77
19z"/>
<path d="M195 1690 c3 -5 15 -15 26 -20 16 -9 19 -7 19 10 0 15 -7 20 -26 20
-14 0 -22 -4 -19 -10z"/>
<path d="M214 975 c-4 -9 -2 -21 4 -27 16 -16 47 -5 47 17 0 26 -42 34 -51 10z"/>
<path d="M210 656 c0 -8 5 -18 10 -21 6 -3 10 3 10 14 0 12 -4 21 -10 21 -5 0
-10 -6 -10 -14z"/>
<path d="M214 555 c-4 -9 -2 -21 4 -27 16 -16 47 -5 47 17 0 26 -42 34 -51 10z"/>
<path d="M214 445 c-4 -9 -2 -21 4 -27 16 -16 47 -5 47 17 0 26 -42 34 -51 10z"/>
<path d="M212 323 c2 -12 12 -18 28 -18 16 0 26 6 28 18 3 13 -3 17 -28 17
-25 0 -31 -4 -28 -17z"/>
<path d="M203 222 c-29 -4 -29 -18 -1 -25 25 -7 31 -4 26 15 -2 7 -13 12 -25
10z"/>
</g>
</svg>
