<?xml version="1.0" standalone="no"?>
<!DOCTYPE svg PUBLIC "-//W3C//DTD SVG 20010904//EN"
 "http://www.w3.org/TR/2001/REC-SVG-20010904/DTD/svg10.dtd">
<svg version="1.0" xmlns="http://www.w3.org/2000/svg"
 width="240.000000pt" height="240.000000pt" viewBox="0 0 240.000000 240.000000"
 preserveAspectRatio="xMidYMid meet">

<g transform="translate(0.000000,240.000000) scale(0.100000,-0.100000)"
fill="#000000" stroke="none">
<path d="M0 1200 l0 -1200 1200 0 1200 0 0 1200 0 1200 -1200 0 -1200 0 0
-1200z m945 173 c-10 -16 -25 -38 -33 -50 -12 -19 -23 -23 -68 -23 l-54 0 0
-150 0 -150 -60 0 -60 0 0 150 0 150 -70 0 c-38 0 -70 3 -70 6 0 3 14 25 30
50 l31 44 186 0 185 0 -17 -27z m425 22 c0 -2 -14 -25 -32 -50 l-32 -45 -103
0 -103 0 0 -26 0 -26 125 4 c69 2 125 -1 125 -5 0 -5 -14 -28 -30 -53 l-31
-44 -94 0 -95 0 0 -75 0 -75 -60 0 -60 0 0 200 0 200 195 0 c107 0 195 -2 195
-5z m483 -8 c-4 -7 -19 -29 -33 -50 l-25 -37 -137 0 c-125 0 -166 -8 -138 -25
6 -4 64 -8 130 -9 136 -3 181 -19 212 -76 23 -44 23 -76 0 -119 -34 -64 -62
-71 -280 -71 l-194 0 34 48 34 47 149 5 c128 4 149 7 159 23 18 29 -10 37
-142 37 -81 0 -134 5 -156 14 -92 38 -103 152 -20 207 26 17 48 19 222 19 153
0 191 -3 185 -13z"/>
</g>
</svg>
