<?xml version="1.0" standalone="no"?>
<!DOCTYPE svg PUBLIC "-//W3C//DTD SVG 20010904//EN"
 "http://www.w3.org/TR/2001/REC-SVG-20010904/DTD/svg10.dtd">
<svg version="1.0" xmlns="http://www.w3.org/2000/svg"
 width="260.000000pt" height="280.000000pt" viewBox="0 0 260.000000 280.000000"
 preserveAspectRatio="xMidYMid meet">

<g transform="translate(0.000000,280.000000) scale(0.100000,-0.100000)"
fill="#000000" stroke="none">
<path d="M0 1500 l0 -1300 1300 0 1300 0 0 1300 0 1300 -1300 0 -1300 0 0
-1300z m1210 555 c97 -26 179 -73 255 -149 40 -39 78 -81 84 -94 7 -13 -19 8
-57 47 -186 190 -472 212 -682 54 -214 -160 -269 -471 -123 -692 186 -283 568
-321 805 -80 38 39 64 60 57 47 -6 -13 -44 -55 -84 -94 -115 -114 -237 -164
-402 -164 -318 0 -567 250 -567 570 0 252 149 461 389 542 65 22 98 28 175 28
52 0 120 -7 150 -15z m65 -99 c115 -30 242 -124 294 -215 l22 -41 -50 0 c-45
0 -51 3 -70 33 -43 69 -131 138 -213 166 -165 56 -337 18 -458 -101 -29 -29
-48 -43 -42 -32 17 32 119 122 166 146 108 56 244 73 351 44z m95 -313 c0 -3
-11 -21 -26 -40 -22 -29 -31 -33 -70 -33 l-44 0 0 -110 0 -110 -45 0 -45 0 0
110 0 110 -61 0 -61 0 32 40 32 40 144 0 c79 0 144 -3 144 -7z m330 -3 c0 -5
-12 -22 -26 -39 -25 -30 -28 -31 -110 -31 -67 0 -84 -3 -84 -15 0 -11 21 -15
106 -17 l105 -3 -28 -37 -28 -37 -77 -1 -78 0 0 -55 0 -55 -45 0 -45 0 0 143
c0 79 3 147 7 151 10 10 303 6 303 -4z m390 4 c0 -4 -11 -22 -26 -41 l-25 -33
-110 0 c-60 0 -109 -4 -109 -9 0 -5 46 -11 103 -13 116 -5 157 -20 177 -68 19
-45 -2 -87 -54 -111 -34 -15 -66 -19 -183 -19 -79 0 -143 3 -143 6 0 3 12 21
26 39 l26 34 121 3 c101 3 122 6 122 18 0 12 -22 16 -117 20 -141 6 -171 21
-176 87 -3 46 18 71 70 83 43 9 298 13 298 4z m-521 -385 c-13 -22 -48 -64
-79 -93 -154 -147 -370 -177 -563 -80 -53 27 -187 152 -187 174 0 7 13 -4 29
-24 114 -144 307 -197 489 -135 82 28 170 97 213 167 19 29 25 32 70 32 l50 0
-22 -41z"/>
<path d="M1082 90 c0 -25 2 -39 5 -32 4 10 8 10 21 0 13 -11 14 -10 4 8 -6 12
-8 25 -4 29 4 5 2 5 -5 1 -7 -4 -13 2 -16 16 -2 13 -5 3 -5 -22z"/>
<path d="M1456 121 c-4 -5 3 -7 14 -4 26 7 25 -7 -1 -41 l-20 -26 28 1 c16 1
21 3 11 6 -16 4 -16 6 -2 28 9 13 13 29 9 35 -8 12 -32 13 -39 1z"/>
<path d="M1525 121 c-3 -6 0 -9 8 -5 10 3 14 -4 15 -26 1 -27 -2 -30 -21 -24
-17 5 -19 4 -10 -6 21 -22 45 -4 41 32 -3 32 -21 48 -33 29z"/>
<path d="M1587 123 c-2 -5 -4 -23 -5 -40 -2 -27 1 -33 17 -33 11 0 22 4 25 9
9 14 -4 41 -20 41 -8 0 -14 5 -14 11 0 6 7 9 15 5 8 -3 15 -1 15 4 0 12 -27
13 -33 3z m31 -51 c2 -7 -3 -12 -12 -12 -9 0 -16 7 -16 16 0 17 22 14 28 -4z"/>
<path d="M1661 124 c21 -6 24 -64 3 -64 -11 0 -13 6 -9 19 3 11 2 22 -3 24 -4
3 -8 -6 -7 -21 0 -20 5 -27 20 -27 16 0 20 7 20 35 0 27 -4 35 -20 37 -13 1
-14 0 -4 -3z"/>
<path d="M1715 121 c-3 -6 0 -9 8 -5 10 3 14 -4 15 -26 1 -27 -2 -30 -21 -24
-17 5 -19 4 -10 -6 21 -22 45 -4 41 32 -3 32 -21 48 -33 29z"/>
<path d="M1787 123 c22 -4 22 -6 8 -33 -22 -42 -17 -51 5 -10 25 46 25 50 -7
49 -24 -2 -25 -2 -6 -6z"/>
<path d="M1836 121 c-4 -5 3 -7 14 -4 27 7 26 -14 -2 -44 l-21 -23 29 1 c18 1
22 3 11 6 -17 4 -18 6 -2 24 10 10 15 25 12 34 -7 16 -32 20 -41 6z"/>
<path d="M1907 123 c-12 -12 -7 -33 7 -33 26 0 28 -20 4 -29 -14 -6 -17 -10
-7 -10 8 -1 20 4 26 10 14 14 6 39 -13 39 -20 0 -17 18 4 23 14 4 14 5 1 6 -9
0 -19 -2 -22 -6z"/>
<path d="M1981 130 c-1 -3 -3 -22 -4 -43 -2 -31 1 -37 18 -37 13 0 16 3 8 8
-6 4 -13 23 -16 42 -2 19 -5 33 -6 30z"/>
<path d="M2038 123 c26 -5 26 -6 7 -43 -9 -17 -13 -30 -10 -30 2 0 14 18 25
40 l20 40 -32 -1 c-24 -1 -27 -3 -10 -6z"/>
<path d="M700 86 c0 -28 4 -36 18 -36 13 0 14 2 3 9 -8 5 -12 18 -8 30 3 12 1
24 -4 27 -5 3 -9 -11 -9 -30z"/>
<path d="M741 88 c-1 -30 3 -38 17 -38 11 0 13 3 5 8 -6 4 -13 21 -16 37 -4
27 -4 27 -6 -7z"/>
<path d="M928 115 c-7 -7 3 -65 11 -65 4 0 5 16 3 35 -4 36 -5 38 -14 30z"/>
<path d="M535 100 c-4 -6 -2 -17 5 -24 8 -11 8 -15 -2 -19 -8 -4 -7 -6 5 -6 9
-1 17 6 17 14 0 8 -5 15 -11 15 -6 0 -9 7 -5 15 6 17 0 20 -9 5z"/>
<path d="M609 78 c4 -28 6 -29 9 -9 2 13 0 27 -5 32 -6 6 -7 -3 -4 -23z"/>
<path d="M806 97 c3 -10 9 -15 12 -12 3 3 0 11 -7 18 -10 9 -11 8 -5 -6z"/>
<path d="M970 95 c-7 -8 -9 -22 -6 -31 8 -22 41 -13 42 11 1 15 0 16 -3 3 -5
-21 -33 -24 -33 -5 0 7 5 18 12 25 7 7 9 12 6 12 -3 0 -11 -7 -18 -15z"/>
<path d="M1031 96 c-14 -17 -4 -46 17 -46 13 0 12 3 -3 14 -16 12 -17 16 -6
30 7 9 11 16 8 16 -2 0 -10 -6 -16 -14z"/>
<path d="M1220 95 c-7 -8 -9 -22 -6 -31 8 -22 41 -13 42 11 1 15 0 16 -3 3 -5
-21 -33 -24 -33 -5 0 7 5 18 12 25 7 7 9 12 6 12 -3 0 -11 -7 -18 -15z"/>
<path d="M1339 78 c4 -28 6 -29 9 -9 2 13 0 27 -5 32 -6 6 -7 -3 -4 -23z"/>
<path d="M641 78 c-1 -22 4 -28 19 -28 15 0 20 6 19 28 -2 23 -2 24 -6 5 -2
-13 -8 -23 -13 -23 -5 0 -11 10 -13 23 -4 19 -4 18 -6 -5z"/>
<path d="M784 75 c1 -12 9 -21 21 -22 14 -1 15 0 3 3 -9 3 -19 13 -21 22 -3
12 -4 11 -3 -3z"/>
<path d="M841 84 c0 -11 3 -14 6 -6 3 7 2 16 -1 19 -3 4 -6 -2 -5 -13z"/>
<path d="M870 91 c0 -5 8 -12 17 -15 15 -6 15 -8 3 -17 -13 -9 -13 -10 -1 -7
23 6 23 22 1 36 -11 7 -20 8 -20 3z"/>
<path d="M1164 75 c1 -12 9 -21 21 -22 14 -1 15 0 3 3 -9 3 -19 13 -21 22 -3
12 -4 11 -3 -3z"/>
<path d="M1312 75 c0 -16 2 -22 5 -12 2 9 2 23 0 30 -3 6 -5 -1 -5 -18z"/>
</g>
</svg>
